<svg width="1380" height="283" viewBox="0 0 1380 283" fill="none" xmlns="http://www.w3.org/2000/svg">
<path d="M45.952 195.536C38.6133 195.536 32.0853 194 26.368 190.928C20.736 187.856 16.2987 183.632 13.056 178.256C9.81333 172.88 8.192 166.779 8.192 159.952V98.64H25.6V159.056C25.6 162.981 26.4533 166.523 28.16 169.68C29.952 172.837 32.384 175.312 35.456 177.104C38.528 178.811 42.0267 179.664 45.952 179.664C49.9627 179.664 53.4613 178.811 56.448 177.104C59.52 175.312 61.9093 172.837 63.616 169.68C65.408 166.523 66.304 162.981 66.304 159.056V98.64H83.712V159.952C83.712 166.779 82.0907 172.88 78.848 178.256C75.6053 183.632 71.1253 187.856 65.408 190.928C59.776 194 53.2907 195.536 45.952 195.536ZM99.683 194V124.368H115.427V138.064L114.147 135.632C115.768 131.451 118.414 128.293 122.083 126.16C125.838 123.941 130.19 122.832 135.139 122.832C140.259 122.832 144.782 123.941 148.707 126.16C152.718 128.379 155.832 131.493 158.051 135.504C160.27 139.429 161.379 143.995 161.379 149.2V194H144.611V153.168C144.611 150.096 144.014 147.451 142.819 145.232C141.624 143.013 139.96 141.307 137.827 140.112C135.779 138.832 133.347 138.192 130.531 138.192C127.8 138.192 125.368 138.832 123.235 140.112C121.102 141.307 119.438 143.013 118.243 145.232C117.048 147.451 116.451 150.096 116.451 153.168V194H99.683ZM175.558 194V124.368H192.326V194H175.558ZM175.558 116.56V98.64H192.326V116.56H175.558ZM209.216 194V98.64H225.856L261.568 147.152H253.632L288.576 98.64H305.216V194H287.68V118.48L294.464 120.144L258.24 168.4H256.192L220.864 120.144L226.624 118.48V194H209.216ZM355.082 195.536C347.914 195.536 341.642 193.915 336.266 190.672C330.89 187.429 326.709 183.035 323.722 177.488C320.735 171.941 319.242 165.797 319.242 159.056C319.242 152.059 320.735 145.872 323.722 140.496C326.794 135.035 330.933 130.725 336.138 127.568C341.429 124.411 347.317 122.832 353.802 122.832C359.263 122.832 364.042 123.728 368.138 125.52C372.319 127.312 375.861 129.787 378.762 132.944C381.663 136.101 383.882 139.728 385.418 143.824C386.954 147.835 387.722 152.187 387.722 156.88C387.722 158.075 387.637 159.312 387.466 160.592C387.381 161.872 387.167 162.981 386.826 163.92H333.066V151.12H377.354L369.418 157.136C370.186 153.211 369.973 149.712 368.778 146.64C367.669 143.568 365.791 141.136 363.146 139.344C360.586 137.552 357.471 136.656 353.802 136.656C350.303 136.656 347.189 137.552 344.458 139.344C341.727 141.051 339.637 143.611 338.186 147.024C336.821 150.352 336.309 154.405 336.65 159.184C336.309 163.451 336.863 167.248 338.314 170.576C339.85 173.819 342.069 176.336 344.97 178.128C347.957 179.92 351.37 180.816 355.21 180.816C359.05 180.816 362.293 180.005 364.938 178.384C367.669 176.763 369.802 174.587 371.338 171.856L384.906 178.512C383.541 181.84 381.407 184.784 378.506 187.344C375.605 189.904 372.149 191.909 368.138 193.36C364.213 194.811 359.861 195.536 355.082 195.536ZM400.433 194V124.368H416.177V139.856L414.897 137.552C416.518 132.347 419.036 128.72 422.449 126.672C425.948 124.624 430.129 123.6 434.993 123.6H439.089V138.448H433.073C428.294 138.448 424.454 139.941 421.553 142.928C418.652 145.829 417.201 149.925 417.201 155.216V194H400.433ZM481.844 195.536C474.932 195.536 468.703 193.957 463.156 190.8C457.695 187.557 453.385 183.205 450.228 177.744C447.071 172.197 445.492 165.968 445.492 159.056C445.492 152.144 447.071 145.957 450.228 140.496C453.385 135.035 457.695 130.725 463.156 127.568C468.703 124.411 474.932 122.832 481.844 122.832C486.793 122.832 491.401 123.728 495.668 125.52C499.935 127.227 503.604 129.616 506.676 132.688C509.833 135.675 512.095 139.259 513.46 143.44L498.74 149.84C497.46 146.341 495.284 143.525 492.212 141.392C489.225 139.259 485.769 138.192 481.844 138.192C478.175 138.192 474.889 139.088 471.988 140.88C469.172 142.672 466.953 145.147 465.332 148.304C463.711 151.461 462.9 155.088 462.9 159.184C462.9 163.28 463.711 166.907 465.332 170.064C466.953 173.221 469.172 175.696 471.988 177.488C474.889 179.28 478.175 180.176 481.844 180.176C485.855 180.176 489.353 179.109 492.34 176.976C495.327 174.843 497.46 171.984 498.74 168.4L513.46 175.056C512.095 178.981 509.876 182.523 506.804 185.68C503.732 188.752 500.063 191.184 495.796 192.976C491.529 194.683 486.879 195.536 481.844 195.536ZM526.183 194V97.104H542.951V138.064L540.647 135.632C542.268 131.451 544.914 128.293 548.583 126.16C552.338 123.941 556.69 122.832 561.639 122.832C566.759 122.832 571.282 123.941 575.207 126.16C579.218 128.379 582.332 131.493 584.551 135.504C586.77 139.429 587.879 143.995 587.879 149.2V194H571.111V153.168C571.111 150.096 570.514 147.451 569.319 145.232C568.124 143.013 566.46 141.307 564.327 140.112C562.279 138.832 559.847 138.192 557.031 138.192C554.3 138.192 551.868 138.832 549.735 140.112C547.602 141.307 545.938 143.013 544.743 145.232C543.548 147.451 542.951 150.096 542.951 153.168V194H526.183Z" fill="black"/>
<path d="M756.384 168.12L756.256 156.216C760.352 156.472 763.808 156.301 766.624 155.704C769.525 155.021 771.829 153.869 773.536 152.248C775.328 150.541 776.608 148.323 777.376 145.592C778.229 142.776 778.656 139.405 778.656 135.48C778.656 130.189 778.229 126.051 777.376 123.064C776.523 120.077 775.115 117.987 773.152 116.792C771.189 115.512 768.459 114.872 764.96 114.872C763.851 114.872 762.613 114.915 761.248 115C759.883 115 758.432 115.128 756.896 115.384C755.445 115.555 753.952 115.725 752.416 115.896L746.528 103.992C748.32 103.821 750.069 103.693 751.776 103.608C753.568 103.523 755.317 103.48 757.024 103.48C758.731 103.395 760.309 103.352 761.76 103.352C769.013 103.352 774.944 104.205 779.552 105.912C784.245 107.619 787.701 110.776 789.92 115.384C792.224 119.907 793.376 126.477 793.376 135.096C793.376 143.288 791.84 149.816 788.768 154.68C785.696 159.459 781.387 162.915 775.84 165.048C770.293 167.096 763.808 168.12 756.384 168.12ZM746.784 195.64C746.869 192.227 746.955 187.96 747.04 182.84C747.125 177.635 747.168 172.131 747.168 166.328C747.253 160.525 747.296 154.979 747.296 149.688C747.296 144.312 747.211 138.765 747.04 133.048C746.955 127.331 746.869 121.912 746.784 116.792C746.699 111.587 746.613 107.32 746.528 103.992L762.016 105.144C761.931 107.363 761.845 109.88 761.76 112.696C761.675 115.512 761.589 118.499 761.504 121.656C761.504 124.813 761.504 128.013 761.504 131.256C761.504 134.499 761.504 137.699 761.504 140.856C761.504 143.928 761.504 146.787 761.504 149.432C761.504 151.565 761.504 154.083 761.504 156.984C761.504 159.885 761.504 163 761.504 166.328C761.589 169.656 761.632 172.984 761.632 176.312C761.717 179.64 761.76 182.883 761.76 186.04C761.845 189.197 761.931 192.099 762.016 194.744L746.784 195.64ZM836.856 196.152C834.04 192.056 831.224 188.216 828.408 184.632C825.677 180.963 822.904 177.379 820.088 173.88C817.272 170.381 814.328 166.84 811.256 163.256C813.645 158.221 816.12 153.016 818.68 147.64C821.325 142.179 823.843 136.803 826.232 131.512C828.621 126.221 830.84 121.315 832.888 116.792C834.936 112.269 836.6 108.387 837.88 105.144L852.984 106.808C851.107 110.221 848.931 114.275 846.456 118.968C844.067 123.661 841.592 128.525 839.032 133.56C836.472 138.595 834.04 143.459 831.736 148.152C829.432 152.76 827.427 156.771 825.72 160.184C827.939 163.085 830.029 165.816 831.992 168.376C834.04 170.936 836.088 173.539 838.136 176.184C840.269 178.744 842.616 181.517 845.176 184.504C847.736 187.405 850.595 190.648 853.752 194.232L836.856 196.152ZM802.296 195C802.296 193.549 802.296 191.587 802.296 189.112C802.381 186.637 802.467 183.821 802.552 180.664C802.637 177.507 802.68 174.179 802.68 170.68C802.765 167.096 802.808 163.555 802.808 160.056C802.893 156.472 802.936 153.016 802.936 149.688C802.936 145.336 802.893 140.984 802.808 136.632C802.723 132.195 802.637 128.013 802.552 124.088C802.467 120.077 802.381 116.579 802.296 113.592C802.296 110.605 802.253 108.387 802.168 106.936L818.04 105.4C818.04 106.595 817.997 108.429 817.912 110.904C817.912 113.379 817.869 116.237 817.784 119.48C817.784 122.723 817.741 126.136 817.656 129.72C817.656 133.304 817.613 136.845 817.528 140.344C817.528 143.757 817.528 146.872 817.528 149.688C817.528 152.163 817.528 155.107 817.528 158.52C817.613 161.848 817.656 165.347 817.656 169.016C817.656 172.6 817.656 176.056 817.656 179.384C817.741 182.712 817.784 185.656 817.784 188.216C817.869 190.776 817.912 192.653 817.912 193.848L802.296 195ZM892.329 194.872C889.769 190.776 887.124 186.723 884.393 182.712C881.662 178.701 878.889 174.776 876.073 170.936C873.257 167.096 870.441 163.384 867.625 159.8C870.185 154.936 872.702 149.987 875.177 144.952C877.737 139.832 880.169 134.84 882.473 129.976C884.777 125.112 886.868 120.589 888.745 116.408C890.708 112.141 892.414 108.387 893.865 105.144L909.865 104.76C908.244 107.576 906.494 110.733 904.617 114.232C902.74 117.731 900.777 121.4 898.729 125.24C896.681 129.08 894.633 132.92 892.585 136.76C890.622 140.6 888.745 144.227 886.953 147.64C885.161 151.053 883.582 154.083 882.217 156.728C884.265 159.629 886.313 162.573 888.361 165.56C890.494 168.461 892.713 171.448 895.017 174.52C897.321 177.507 899.753 180.664 902.313 183.992C904.958 187.235 907.732 190.648 910.633 194.232L892.329 194.872ZM858.793 194.872C858.793 193.336 858.793 191.331 858.793 188.856C858.878 186.381 858.964 183.608 859.049 180.536C859.134 177.379 859.177 174.051 859.177 170.552C859.262 167.053 859.305 163.555 859.305 160.056C859.305 156.472 859.305 153.016 859.305 149.688C859.305 145.336 859.262 140.856 859.177 136.248C859.177 131.64 859.134 127.245 859.049 123.064C858.964 118.797 858.878 115.085 858.793 111.928C858.793 108.685 858.75 106.339 858.665 104.888L874.537 105.4C874.537 106.595 874.494 108.429 874.409 110.904C874.409 113.379 874.366 116.237 874.281 119.48C874.281 122.723 874.238 126.136 874.153 129.72C874.153 133.304 874.11 136.845 874.025 140.344C874.025 143.757 874.025 146.872 874.025 149.688C874.025 152.163 874.025 155.107 874.025 158.52C874.11 161.933 874.153 165.517 874.153 169.272C874.153 173.027 874.153 176.611 874.153 180.024C874.238 183.437 874.281 186.467 874.281 189.112C874.366 191.672 874.409 193.549 874.409 194.744L858.793 194.872ZM915.802 196.28C915.887 193.549 915.93 190.435 915.93 186.936C916.015 183.352 916.058 179.512 916.058 175.416C916.058 171.32 916.058 167.096 916.058 162.744C916.058 158.392 916.058 154.04 916.058 149.688C916.058 145.592 916.058 141.496 916.058 137.4C916.058 133.304 916.058 129.336 916.058 125.496C916.058 121.571 916.015 117.901 915.93 114.488C915.93 110.989 915.93 107.832 915.93 105.016L935.898 106.424C936.495 109.667 937.135 113.037 937.818 116.536C938.586 120.035 939.354 123.661 940.122 127.416C940.975 131.085 941.786 134.797 942.554 138.552C943.407 142.307 944.261 146.104 945.114 149.944C945.882 153.187 946.607 156.344 947.29 159.416C947.973 162.488 948.613 165.347 949.21 167.992C949.893 170.637 950.49 173.112 951.002 175.416C951.599 172.6 952.239 169.784 952.922 166.968C953.605 164.067 954.287 161.165 954.97 158.264C955.653 155.277 956.335 152.291 957.018 149.304C957.871 145.549 958.682 141.837 959.45 138.168C960.218 134.413 960.986 130.659 961.754 126.904C962.522 123.064 963.29 119.181 964.058 115.256C964.911 111.331 965.722 107.277 966.49 103.096L986.586 101.432C986.501 103.48 986.415 106.296 986.33 109.88C986.33 113.464 986.33 117.475 986.33 121.912C986.33 126.349 986.33 130.957 986.33 135.736C986.33 140.515 986.33 145.123 986.33 149.56C986.33 153.912 986.33 158.221 986.33 162.488C986.33 166.669 986.33 170.723 986.33 174.648C986.415 178.488 986.458 182.072 986.458 185.4C986.543 188.728 986.629 191.715 986.714 194.36L972.25 193.336C972.25 191.544 972.25 189.795 972.25 188.088C972.335 186.296 972.378 184.504 972.378 182.712C972.378 180.835 972.378 178.915 972.378 176.952C972.378 174.989 972.378 172.984 972.378 170.936C972.378 168.888 972.378 166.755 972.378 164.536C972.378 162.232 972.378 159.843 972.378 157.368C972.378 154.467 972.378 151.523 972.378 148.536C972.378 145.549 972.378 142.605 972.378 139.704C972.378 136.717 972.378 133.773 972.378 130.872C971.951 132.749 971.482 134.755 970.97 136.888C970.543 139.021 970.074 141.197 969.562 143.416C969.135 145.635 968.666 147.896 968.154 150.2C967.642 152.504 967.13 154.765 966.618 156.984C966.021 159.715 965.381 162.488 964.698 165.304C964.101 168.035 963.461 170.851 962.778 173.752C962.095 176.568 961.37 179.512 960.602 182.584C959.834 185.656 959.066 188.899 958.298 192.312L943.194 191.672C942.426 188.003 941.615 184.589 940.762 181.432C939.994 178.275 939.269 175.288 938.586 172.472C937.903 169.656 937.221 166.883 936.538 164.152C935.941 161.421 935.343 158.776 934.746 156.216C934.149 153.4 933.551 150.712 932.954 148.152C932.357 145.592 931.717 143.075 931.034 140.6C930.437 138.125 929.839 135.736 929.242 133.432C929.242 133.944 929.242 134.712 929.242 135.736C929.242 136.675 929.242 137.912 929.242 139.448C929.327 140.899 929.37 142.563 929.37 144.44C929.37 146.317 929.37 148.323 929.37 150.456C929.37 152.504 929.37 154.723 929.37 157.112C929.37 159.672 929.37 162.36 929.37 165.176C929.455 167.907 929.498 170.68 929.498 173.496C929.583 176.227 929.626 178.915 929.626 181.56C929.626 184.12 929.626 186.552 929.626 188.856C929.711 191.16 929.754 193.251 929.754 195.128L915.802 196.28ZM1009.62 168.12L1009.11 159.672C1013.64 159.672 1017.43 159.331 1020.51 158.648C1023.58 157.965 1026.05 156.771 1027.93 155.064C1029.81 153.272 1031.17 150.797 1032.03 147.64C1032.88 144.483 1033.31 140.387 1033.31 135.352C1033.31 130.147 1032.79 126.051 1031.77 123.064C1030.83 119.992 1029.29 117.773 1027.16 116.408C1025.03 115.043 1022.13 114.36 1018.46 114.36C1016.75 114.36 1014.83 114.488 1012.7 114.744C1010.56 114.915 1008.26 115.213 1005.79 115.64L999.769 103.736C1002.84 103.48 1005.83 103.309 1008.73 103.224C1011.63 103.053 1014.23 102.968 1016.54 102.968C1024.05 102.968 1030.11 103.864 1034.71 105.656C1039.32 107.448 1042.69 110.691 1044.83 115.384C1046.96 119.992 1048.03 126.52 1048.03 134.968C1048.03 141.027 1047.04 146.189 1045.08 150.456C1043.2 154.637 1040.56 158.051 1037.15 160.696C1033.73 163.256 1029.68 165.133 1024.99 166.328C1020.29 167.523 1015.17 168.12 1009.62 168.12ZM1016.92 196.28C1015.3 196.28 1013.51 196.237 1011.55 196.152C1009.67 196.152 1007.75 196.067 1005.79 195.896C1003.91 195.811 1001.99 195.725 1000.03 195.64L1006.81 184.376C1009.45 184.632 1012.01 184.888 1014.49 185.144C1016.96 185.315 1019.27 185.4 1021.4 185.4C1023.71 185.4 1025.8 185.229 1027.67 184.888C1029.64 184.547 1031.21 183.864 1032.41 182.84C1033.6 181.731 1034.2 180.067 1034.2 177.848C1034.2 175.971 1033.69 174.52 1032.67 173.496C1031.64 172.387 1030.11 171.619 1028.06 171.192C1026.09 170.765 1023.53 170.552 1020.38 170.552C1019.52 170.552 1018.46 170.595 1017.18 170.68C1015.9 170.68 1014.57 170.68 1013.21 170.68C1011.93 170.68 1010.73 170.723 1009.62 170.808L1009.11 159.672C1019.1 159.587 1026.99 160.312 1032.79 161.848C1038.6 163.384 1042.73 165.56 1045.21 168.376C1047.68 171.192 1048.92 174.563 1048.92 178.488C1048.92 183.181 1047.64 186.851 1045.08 189.496C1042.52 192.056 1038.85 193.848 1034.07 194.872C1029.29 195.811 1023.58 196.28 1016.92 196.28ZM1000.03 195.64C1000.03 195.64 1000.03 194.36 1000.03 191.8C1000.11 189.155 1000.2 185.656 1000.28 181.304C1000.37 176.952 1000.41 172.131 1000.41 166.84C1000.49 161.464 1000.54 156.088 1000.54 150.712C1000.54 145.251 1000.49 139.789 1000.41 134.328C1000.32 128.781 1000.24 123.704 1000.15 119.096C1000.07 114.403 999.982 110.691 999.897 107.96C999.812 105.144 999.769 103.736 999.769 103.736L1015.39 104.888C1015.39 104.888 1015.34 105.997 1015.26 108.216C1015.26 110.349 1015.21 113.208 1015.13 116.792C1015.04 120.291 1014.96 124.131 1014.87 128.312C1014.87 132.408 1014.83 136.419 1014.75 140.344C1014.75 144.269 1014.75 147.725 1014.75 150.712C1014.75 153.699 1014.75 157.112 1014.75 160.952C1014.83 164.792 1014.87 168.675 1014.87 172.6C1014.96 176.525 1015 180.152 1015 183.48C1015.09 186.808 1015.13 189.496 1015.13 191.544C1015.21 193.592 1015.26 194.616 1015.26 194.616L1000.03 195.64ZM1110.09 196.28C1105.74 196.28 1102.07 195.64 1099.08 194.36C1096.18 192.995 1093.79 191.16 1091.92 188.856C1090.12 186.467 1088.8 183.736 1087.95 180.664C1087.18 177.507 1086.8 174.093 1086.8 170.424C1086.8 167.437 1086.8 164.152 1086.8 160.568C1086.88 156.899 1086.92 153.229 1086.92 149.56C1086.92 145.891 1086.92 142.605 1086.92 139.704C1086.92 135.864 1086.92 132.109 1086.92 128.44C1086.92 124.771 1086.88 121.101 1086.8 117.432C1086.8 113.677 1086.71 109.837 1086.54 105.912L1101.9 106.04C1101.81 108.856 1101.73 111.843 1101.64 115C1101.56 118.072 1101.47 121.144 1101.39 124.216C1101.39 127.288 1101.35 130.232 1101.26 133.048C1101.26 135.779 1101.26 138.253 1101.26 140.472C1101.26 142.947 1101.22 145.379 1101.13 147.768C1101.13 150.157 1101.13 152.419 1101.13 154.552C1101.13 156.685 1101.13 158.648 1101.13 160.44C1101.13 162.232 1101.13 163.768 1101.13 165.048C1101.13 169.144 1101.39 172.6 1101.9 175.416C1102.41 178.147 1103.31 180.237 1104.59 181.688C1105.95 183.053 1107.87 183.736 1110.35 183.736C1112.31 183.736 1113.85 183.267 1114.96 182.328C1116.15 181.304 1117.05 179.981 1117.64 178.36C1118.24 176.739 1118.63 174.904 1118.8 172.856C1118.97 170.808 1119.05 168.76 1119.05 166.712C1119.05 165.859 1119.05 164.408 1119.05 162.36C1119.14 160.227 1119.18 157.411 1119.18 153.912C1119.18 150.328 1119.18 145.933 1119.18 140.728C1119.18 135.267 1119.09 130.317 1118.92 125.88C1118.84 121.357 1118.75 117.347 1118.67 113.848C1118.58 110.264 1118.5 107.149 1118.41 104.504L1133.77 104.632C1133.77 107.448 1133.73 110.179 1133.64 112.824C1133.64 115.384 1133.6 118.029 1133.52 120.76C1133.52 123.491 1133.47 126.477 1133.39 129.72C1133.39 132.963 1133.39 136.717 1133.39 140.984C1133.47 148.237 1133.52 154.424 1133.52 159.544C1133.52 164.664 1133.52 168.205 1133.52 170.168C1133.52 172.899 1133.17 175.8 1132.49 178.872C1131.81 181.859 1130.61 184.675 1128.91 187.32C1127.2 189.965 1124.81 192.141 1121.74 193.848C1118.75 195.469 1114.87 196.28 1110.09 196.28ZM1148.05 104.888L1164.31 103.352C1164.73 104.973 1165.37 107.192 1166.23 110.008C1167.16 112.824 1168.19 116.024 1169.3 119.608C1170.49 123.107 1171.64 126.776 1172.75 130.616C1173.95 134.456 1175.1 138.125 1176.21 141.624C1177.32 144.952 1178.34 148.195 1179.28 151.352C1180.31 154.424 1181.2 157.197 1181.97 159.672C1182.82 162.147 1183.51 164.195 1184.02 165.816C1184.02 163.171 1183.97 160.312 1183.89 157.24C1183.89 154.168 1183.85 150.925 1183.76 147.512C1183.76 144.013 1183.76 140.515 1183.76 137.016C1183.68 134.029 1183.59 130.915 1183.51 127.672C1183.51 124.344 1183.51 121.016 1183.51 117.688C1183.51 114.36 1183.46 111.203 1183.38 108.216C1183.38 105.144 1183.33 102.413 1183.25 100.024L1197.59 101.048C1197.5 104.291 1197.37 108.301 1197.2 113.08C1197.12 117.773 1197.03 122.808 1196.95 128.184C1196.95 133.56 1196.95 138.893 1196.95 144.184C1196.86 148.536 1196.82 152.973 1196.82 157.496C1196.82 161.933 1196.82 166.371 1196.82 170.808C1196.82 175.16 1196.82 179.341 1196.82 183.352C1196.82 187.363 1196.82 191.032 1196.82 194.36L1180.95 195.256C1180.09 192.44 1178.98 188.941 1177.62 184.76C1176.34 180.579 1174.93 176.184 1173.39 171.576C1171.86 166.883 1170.36 162.445 1168.91 158.264C1168.23 156.131 1167.55 154.125 1166.87 152.248C1166.18 150.285 1165.54 148.451 1164.95 146.744C1164.35 144.952 1163.79 143.331 1163.28 141.88C1162.85 140.344 1162.43 138.979 1162 137.784C1162 141.453 1162 145.379 1162 149.56C1162 153.656 1162 157.88 1162 162.232C1162.09 165.219 1162.13 168.248 1162.13 171.32C1162.21 174.392 1162.26 177.464 1162.26 180.536C1162.26 183.608 1162.26 186.552 1162.26 189.368C1162.34 192.184 1162.39 194.744 1162.39 197.048L1148.43 198.328C1148.52 195.085 1148.56 191.203 1148.56 186.68C1148.56 182.072 1148.56 177.251 1148.56 172.216C1148.65 167.096 1148.69 162.275 1148.69 157.752C1148.69 151.352 1148.65 144.952 1148.56 138.552C1148.56 132.067 1148.52 125.965 1148.43 120.248C1148.35 114.445 1148.22 109.325 1148.05 104.888ZM1212.3 104.888H1229.07C1229.49 106.509 1230.13 108.685 1230.99 111.416C1231.84 114.061 1232.78 117.048 1233.8 120.376C1234.83 123.704 1235.89 127.203 1237 130.872C1238.2 134.541 1239.35 138.125 1240.46 141.624C1241.57 144.952 1242.59 148.152 1243.53 151.224C1244.56 154.296 1245.45 157.069 1246.22 159.544C1246.99 161.933 1247.63 163.896 1248.14 165.432C1248.14 163.555 1248.14 161.507 1248.14 159.288C1248.14 157.069 1248.14 154.765 1248.14 152.376C1248.14 149.901 1248.1 147.384 1248.01 144.824C1248.01 142.264 1248.01 139.661 1248.01 137.016C1247.93 134.712 1247.84 132.365 1247.76 129.976C1247.76 127.587 1247.76 125.24 1247.76 122.936C1247.76 120.547 1247.71 118.243 1247.63 116.024C1247.63 113.72 1247.63 111.544 1247.63 109.496C1247.63 107.363 1247.58 105.357 1247.5 103.48H1261.84C1261.75 105.955 1261.66 108.728 1261.58 111.8C1261.49 114.872 1261.41 118.157 1261.32 121.656C1261.32 125.069 1261.28 128.696 1261.2 132.536C1261.2 136.291 1261.2 140.173 1261.2 144.184C1261.11 148.536 1261.07 152.931 1261.07 157.368C1261.07 161.72 1261.07 166.029 1261.07 170.296C1261.07 174.563 1261.07 178.659 1261.07 182.584C1261.07 186.509 1261.07 190.136 1261.07 193.464L1244.94 194.36C1244.26 192.227 1243.45 189.752 1242.51 186.936C1241.65 184.12 1240.67 181.091 1239.56 177.848C1238.54 174.605 1237.47 171.32 1236.36 167.992C1235.25 164.664 1234.19 161.421 1233.16 158.264C1232.48 156.131 1231.8 154.125 1231.12 152.248C1230.43 150.285 1229.79 148.451 1229.2 146.744C1228.6 144.952 1228.04 143.331 1227.53 141.88C1227.1 140.344 1226.68 138.979 1226.25 137.784C1226.25 139.576 1226.25 141.496 1226.25 143.544C1226.25 145.507 1226.25 147.512 1226.25 149.56C1226.25 151.608 1226.25 153.699 1226.25 155.832C1226.25 157.88 1226.25 160.013 1226.25 162.232C1226.34 164.536 1226.38 166.883 1226.38 169.272C1226.38 171.576 1226.38 173.88 1226.38 176.184C1226.46 178.403 1226.51 180.621 1226.51 182.84C1226.51 184.973 1226.51 187.064 1226.51 189.112C1226.59 191.16 1226.64 193.123 1226.64 195L1212.68 194.872C1212.68 192.397 1212.68 189.752 1212.68 186.936C1212.77 184.035 1212.81 181.005 1212.81 177.848C1212.9 174.691 1212.94 171.405 1212.94 167.992C1212.94 164.579 1212.94 161.165 1212.94 157.752C1212.94 152.888 1212.94 148.067 1212.94 143.288C1212.94 138.424 1212.9 133.688 1212.81 129.08C1212.73 124.472 1212.64 120.12 1212.56 116.024C1212.56 111.928 1212.47 108.216 1212.3 104.888ZM1276.93 195.384C1276.93 195.384 1276.93 194.488 1276.93 192.696C1277.02 190.819 1277.06 188.344 1277.06 185.272C1277.15 182.115 1277.19 178.531 1277.19 174.52C1277.19 170.509 1277.19 166.285 1277.19 161.848C1277.27 157.411 1277.32 153.016 1277.32 148.664C1277.32 143.203 1277.27 137.912 1277.19 132.792C1277.19 127.587 1277.1 122.936 1276.93 118.84C1276.85 114.659 1276.76 111.373 1276.68 108.984C1276.59 106.509 1276.55 105.272 1276.55 105.272L1292.04 106.808C1292.04 106.808 1291.99 107.789 1291.91 109.752C1291.91 111.629 1291.91 114.147 1291.91 117.304C1291.91 120.376 1291.87 123.789 1291.78 127.544C1291.78 131.299 1291.74 135.011 1291.65 138.68C1291.65 142.349 1291.65 145.677 1291.65 148.664C1291.65 151.651 1291.65 155.149 1291.65 159.16C1291.74 163.171 1291.78 167.224 1291.78 171.32C1291.87 175.416 1291.91 179.213 1291.91 182.712C1291.99 186.211 1292.04 189.069 1292.04 191.288C1292.12 193.421 1292.17 194.488 1292.17 194.488L1276.93 195.384ZM1276.93 195.384L1284.36 184.248L1318.15 184.632L1318.28 195L1276.93 195.384ZM1283.85 165.176V152.76L1317.51 153.144L1316.1 164.664L1283.85 165.176ZM1282.82 117.304L1276.55 105.272L1316.49 106.296L1317.64 117.432L1282.82 117.304ZM1350.79 196.28C1346.7 196.28 1343.07 195.768 1339.91 194.744C1336.84 193.635 1334.28 192.141 1332.23 190.264C1330.18 188.301 1328.6 185.955 1327.5 183.224C1326.47 180.493 1325.96 177.379 1325.96 173.88C1325.96 172.259 1326.09 170.595 1326.34 168.888C1326.6 167.096 1326.94 165.261 1327.37 163.384H1341.19C1340.85 165.176 1340.55 166.883 1340.3 168.504C1340.12 170.125 1340.04 171.661 1340.04 173.112C1340.04 176.867 1340.81 179.811 1342.34 181.944C1343.96 184.077 1346.61 185.144 1350.28 185.144C1353.18 185.144 1355.44 184.632 1357.06 183.608C1358.77 182.584 1359.96 181.304 1360.65 179.768C1361.42 178.147 1361.8 176.44 1361.8 174.648C1361.8 172.429 1361.42 170.552 1360.65 169.016C1359.88 167.395 1358.81 165.987 1357.45 164.792C1356.08 163.512 1354.46 162.317 1352.58 161.208C1350.71 160.099 1348.66 158.989 1346.44 157.88C1343.79 156.429 1341.23 154.893 1338.76 153.272C1336.37 151.651 1334.19 149.731 1332.23 147.512C1330.27 145.293 1328.69 142.648 1327.5 139.576C1326.3 136.504 1325.7 132.835 1325.7 128.568C1325.7 124.045 1326.68 119.992 1328.65 116.408C1330.7 112.824 1333.64 110.008 1337.48 107.96C1341.4 105.827 1346.18 104.76 1351.82 104.76C1357.7 104.76 1362.44 105.784 1366.02 107.832C1369.69 109.88 1372.38 112.781 1374.09 116.536C1375.79 120.291 1376.65 124.771 1376.65 129.976C1376.65 130.829 1376.6 131.768 1376.52 132.792C1376.52 133.816 1376.48 134.84 1376.39 135.864C1376.31 136.888 1376.18 137.955 1376.01 139.064C1375.84 140.088 1375.67 141.155 1375.5 142.264H1360.78C1360.95 140.813 1361.07 139.448 1361.16 138.168C1361.33 136.888 1361.46 135.651 1361.54 134.456C1361.71 133.176 1361.8 131.981 1361.8 130.872C1361.8 127.885 1361.46 125.283 1360.78 123.064C1360.09 120.845 1358.94 119.181 1357.32 118.072C1355.78 116.877 1353.74 116.28 1351.18 116.28C1349.38 116.28 1347.8 116.579 1346.44 117.176C1345.07 117.773 1343.92 118.627 1342.98 119.736C1342.13 120.76 1341.45 121.997 1340.94 123.448C1340.51 124.899 1340.3 126.477 1340.3 128.184C1340.3 131.341 1340.85 133.944 1341.96 135.992C1343.15 138.04 1344.78 139.789 1346.82 141.24C1348.87 142.605 1351.22 144.013 1353.86 145.464C1356.59 146.915 1359.28 148.493 1361.93 150.2C1364.66 151.821 1367.13 153.699 1369.35 155.832C1371.57 157.88 1373.32 160.397 1374.6 163.384C1375.88 166.285 1376.52 169.699 1376.52 173.624C1376.52 177.549 1375.58 181.261 1373.7 184.76C1371.91 188.173 1369.1 190.947 1365.26 193.08C1361.5 195.213 1356.68 196.28 1350.79 196.28Z" fill="black"/>
<path d="M667.424 118.906L685.806 94.7C684.471 90.9387 684.957 86.9953 687.262 82.87C694.542 75.59 701.761 70.9187 708.92 68.856C716.807 66.7933 723.783 66.9147 729.85 69.22C732.883 70.4333 735.249 72.314 736.948 74.862C738.647 77.41 738.95 80.8073 737.858 85.054C734.946 91.3633 729.061 99.3107 720.204 108.896C716.564 112.779 712.924 116.601 709.284 120.362C705.644 124.123 702.429 127.642 699.638 130.918C696.969 134.194 694.542 137.531 692.358 140.928C690.174 144.204 687.869 147.48 685.442 150.756C686.655 155.852 689.264 163.799 693.268 174.598C697.393 185.275 700.245 193.405 701.822 198.986C703.399 204.446 704.309 209.785 704.552 215.002C704.067 216.822 703.339 217.975 702.368 218.46C701.397 218.945 700.366 219.249 699.274 219.37C698.303 219.491 697.393 219.491 696.544 219.37C695.695 219.37 695.209 219.734 695.088 220.462C695.816 221.797 695.755 223.01 694.906 224.102C694.057 225.194 692.783 225.983 691.084 226.468C687.08 227.803 682.955 227.621 678.708 225.922C674.461 223.01 670.275 217.489 666.15 209.36C663.602 204.385 660.872 196.984 657.96 187.156C655.533 190.432 653.349 193.829 651.408 197.348C649.467 200.745 647.465 204.082 645.402 207.358C640.791 215.002 636.12 220.401 631.388 223.556C623.137 227.681 615.069 228.652 607.182 226.468C600.387 222.828 599.053 215.791 603.178 205.356C604.513 201.716 605.847 199.411 607.182 198.44C607.789 197.833 608.092 197.53 608.092 197.53C608.213 197.53 608.274 197.469 608.274 197.348C608.395 197.227 608.577 196.923 608.82 196.438C609.184 195.831 609.973 194.679 611.186 192.98C615.433 186.428 620.225 179.391 625.564 171.868L629.386 167.5C631.206 165.316 633.147 163.011 635.21 160.584C640.063 154.639 643.218 150.938 644.674 149.482C639.699 137.834 636.666 129.887 635.574 125.64C633.875 118.117 632.783 107.986 632.298 95.246C630.963 92.0913 632.177 88.2087 635.938 83.598C639.335 79.4727 643.339 76.7427 647.95 75.408C653.046 73.952 656.383 75.408 657.96 79.776C660.265 86.2067 662.025 92.6373 663.238 99.068C664.573 105.377 665.968 111.99 667.424 118.906Z" fill="#2563EB" fill-opacity="0.9"/>
</svg>
